<?xml version="1.0" standalone="no"?>
<!DOCTYPE svg PUBLIC "-//W3C//DTD SVG 20010904//EN"
 "http://www.w3.org/TR/2001/REC-SVG-20010904/DTD/svg10.dtd">
<svg version="1.0" xmlns="http://www.w3.org/2000/svg"
 width="440.000000pt" height="440.000000pt" viewBox="0 0 440.000000 440.000000"
 preserveAspectRatio="xMidYMid meet">
<metadata>
Created by potrace 1.11, written by Peter Selinger 2001-2013
</metadata>
<g transform="translate(0.000000,440.000000) scale(0.100000,-0.100000)"
fill="#000000" stroke="none">
<path d="M990 4185 c-200 -43 -358 -127 -494 -261 -153 -152 -238 -308 -281
-519 -14 -71 -15 -204 -13 -1240 4 -1275 -1 -1174 64 -1345 108 -288 369 -516
684 -596 72 -18 127 -19 1250 -19 1123 0 1178 1 1250 19 364 93 633 362 726
726 18 72 19 127 19 1250 0 1123 -1 1178 -19 1250 -53 209 -155 374 -320 518
-105 93 -233 159 -401 209 -56 16 -143 18 -1230 20 -972 1 -1181 -1 -1235 -12z
m1420 -696 c354 -53 617 -330 684 -718 20 -118 20 -204 1 -317 -42 -244 -156
-444 -323 -569 -95 -71 -148 -98 -259 -132 -79 -24 -105 -27 -243 -27 -149 -1
-157 0 -205 26 -27 14 -61 38 -75 53 -22 24 -25 35 -25 105 0 70 3 81 25 106
35 38 137 84 185 84 75 0 170 21 231 51 111 55 218 187 253 314 17 60 14 232
-5 296 -40 138 -137 254 -260 311 -54 25 -87 33 -166 39 -68 5 -113 14 -143
29 -84 40 -124 117 -104 195 28 103 91 151 216 164 81 8 104 7 213 -10z m-824
-103 c89 -41 133 -116 153 -257 10 -72 26 -109 67 -158 37 -44 133 -91 186
-91 56 0 159 -25 207 -50 168 -85 193 -301 50 -423 -50 -44 -105 -63 -218 -78
-108 -14 -159 -38 -215 -100 -79 -88 -79 -86 -85 -584 -5 -394 -8 -444 -24
-480 -20 -45 -88 -119 -129 -141 -39 -21 -131 -18 -177 5 -44 23 -98 81 -116
125 -30 74 -34 161 -40 1026 -7 974 -6 996 52 1101 63 116 176 157 289 105z"/>
</g>
</svg>
